<svg width="48" height="48" viewBox="0 0 48 48" fill="none" xmlns="http://www.w3.org/2000/svg">
<g clip-path="url(#clip0_263_1214)">
<rect width="48" height="48" rx="24" fill="#00D72F" fill-opacity="0.1"/>
<path d="M25.6668 49.9725C23.5636 49.9725 21.8586 48.2675 21.8586 46.1643V61.8211H26.8641V49.9725H25.6668Z" fill="#D88A55"/>
<path d="M21.8586 46.1643V61.8211H24.3976V49.755C22.9185 49.2323 21.8586 47.8224 21.8586 46.1643Z" fill="#C57A44"/>
<path d="M59.3392 19.0109H40.1219C39.2349 20.0878 37.8939 20.7502 36.4527 20.7502C35.9536 20.7502 35.4597 20.672 34.9849 20.5176L34.8186 20.4637V26.9687C34.8186 28.7503 34.3282 30.4941 33.4015 32.0206C33.5525 32.4803 33.6354 32.9702 33.6354 33.4788V33.8325C33.6354 36.4209 31.5176 38.5387 28.9291 38.5387H21.8585V46.1643C21.8585 48.2675 23.5634 49.9725 25.6667 49.9725H30.5999C31.301 49.9725 31.8693 50.5409 31.8693 51.2419V61.8211H36.8749V51.2419C36.8749 50.5409 37.4432 49.9725 38.1443 49.9725H61.9501C62.6512 49.9725 63.2195 50.5409 63.2195 51.2419V61.8211H68.225V27.8969C68.2252 22.9893 64.2468 19.0109 59.3392 19.0109Z" fill="#EA9B58"/>
<path d="M25.6672 46.1643V38.5387H21.8586V46.1643C21.8586 48.2675 23.5636 49.9725 25.6668 49.9725H29.4754C27.3722 49.9725 25.6672 48.2675 25.6672 46.1643Z" fill="#D88A55"/>
<path d="M20.9717 16.0048V12.8366C20.9717 11.9249 20.2257 11.1789 19.3141 11.1789H19.1895C18.2779 11.1789 17.5319 11.9249 17.5319 12.8366V16.0048H20.9717Z" fill="#E7B795"/>
<path d="M32.5198 16.0048V12.8366C32.5198 11.9249 31.7738 11.1789 30.8621 11.1789H30.7376C29.8259 11.1789 29.08 11.9249 29.08 12.8366V16.0048H32.5198Z" fill="#E7B795"/>
<path d="M39.8259 16.0048H34.9457V20.6385C35.4204 20.7927 35.9266 20.8773 36.4529 20.8773C38.5481 20.8773 40.3343 19.5548 41.0227 17.6991C41.3275 16.877 40.7026 16.0048 39.8259 16.0048Z" fill="#F6A96C"/>
<path d="M15.1059 16.0048H10.2257C9.34885 16.0048 8.72411 16.877 9.02906 17.6991C9.7174 19.5548 11.5036 20.8773 13.5989 20.8773C14.1251 20.8773 14.6312 20.7928 15.106 20.6385L15.1059 16.0048Z" fill="#F6A96C"/>
<path d="M11.5681 17.699C11.2632 16.8769 11.888 16.0047 12.7649 16.0047H10.2258C9.34898 16.0047 8.72425 16.8769 9.02906 17.699C9.7174 19.5547 11.5036 20.8771 13.5989 20.8771C14.038 20.8771 14.4632 20.8181 14.8679 20.7092C13.3419 20.2982 12.112 19.1656 11.5681 17.699Z" fill="#EA9B58"/>
<path d="M15.106 16.0048V26.9689C15.106 28.8789 15.6546 30.6662 16.5998 32.1842C17.1659 30.2204 18.9827 28.7727 21.1224 28.7727H28.9292C31.0689 28.7727 32.8857 30.2204 33.4518 32.1842C34.3971 30.6662 34.9457 28.8789 34.9457 26.9689V16.0048H15.106Z" fill="#D88A55"/>
<path d="M19.1704 29.2004C19.0035 28.4825 18.9146 27.7355 18.9146 26.9687V16.0048H15.106V26.9689C15.106 28.8789 15.6546 30.6662 16.5998 32.1842C16.9819 30.8586 17.9337 29.7691 19.1704 29.2004Z" fill="#C57A44"/>
<path d="M28.9292 38.5387H21.1224C18.5339 38.5387 16.4161 36.4209 16.4161 33.8325V33.4788C16.4161 30.8903 18.5339 28.7725 21.1224 28.7725H28.9292C31.5177 28.7725 33.6355 30.8903 33.6355 33.4788V33.8325C33.6355 36.421 31.5177 38.5387 28.9292 38.5387Z" fill="#EDCAB2"/>
<path d="M19.209 33.8326V33.4789C19.209 30.8904 21.3269 28.7726 23.9153 28.7726H21.1224C18.5339 28.7726 16.4161 30.8904 16.4161 33.4789V33.8326C16.4161 36.421 18.5339 38.5389 21.1224 38.5389H23.9153C21.3269 38.5387 19.209 36.4209 19.209 33.8326Z" fill="#E7B795"/>
<path d="M72.0478 60.8689H69.1773V38.8276C69.1773 38.3017 68.7511 37.8754 68.2251 37.8754C67.6992 37.8754 67.273 38.3017 67.273 38.8276V56.9016H64.1718V51.242C64.1718 50.0171 63.1752 49.0205 61.9502 49.0205H45.7473C45.2214 49.0205 44.7952 49.4468 44.7952 49.9726C44.7952 50.4985 45.2214 50.9248 45.7473 50.9248H52.2565V60.869H50.9289V59.1913C50.9289 58.6655 50.5027 58.2392 49.9768 58.2392C49.4508 58.2392 49.0246 58.6655 49.0246 59.1913V60.869H47.8823V59.1913C47.8823 58.6655 47.4561 58.2392 46.9302 58.2392C46.4042 58.2392 45.978 58.6655 45.978 59.1913V60.869H44.8357V59.1913C44.8357 58.6655 44.4095 58.2392 43.8835 58.2392C43.3576 58.2392 42.9314 58.6655 42.9314 59.1913V60.869H41.7891V59.1913C41.7891 58.6655 41.3629 58.2392 40.8369 58.2392C40.3109 58.2392 39.8848 58.6655 39.8848 59.1913V60.869H37.8271V51.242C37.8271 51.0671 37.9694 50.9248 38.1444 50.9248H41.2194C41.7454 50.9248 42.1716 50.4985 42.1716 49.9726C42.1716 49.4468 41.7454 49.0205 41.2194 49.0205H38.1444C36.9194 49.0205 35.9228 50.0171 35.9228 51.242V56.9016H32.8216V51.242C32.8216 50.0171 31.825 49.0205 30.6 49.0205H25.6668C24.0919 49.0205 22.8106 47.7393 22.8106 46.1643V39.491H28.9292C32.0493 39.491 34.5876 36.9527 34.5876 33.8326V33.4789C34.5876 33.0881 34.5478 32.7065 34.472 32.3378C35.3773 30.7528 35.8977 28.9211 35.8977 26.9687C35.8977 26.4429 35.4715 26.0166 34.9455 26.0166C34.4196 26.0166 33.9934 26.4429 33.9934 26.9687C33.9934 28.0574 33.7965 29.1004 33.439 30.0661C32.4048 28.7029 30.7684 27.8203 28.9291 27.8203H21.1222C19.2829 27.8203 17.6465 28.7028 16.6124 30.0661C16.2549 29.1003 16.0579 28.0574 16.0579 26.9687V16.9568H33.9932V22.4717C33.9932 22.9975 34.4194 23.4238 34.9454 23.4238C35.4714 23.4238 35.8975 22.9975 35.8975 22.4717V21.7996C36.0805 21.8171 36.2651 21.8293 36.4526 21.8293C38.0982 21.8293 39.6375 21.1253 40.7205 19.9631H59.3391C63.7137 19.9631 67.2727 23.5222 67.2727 27.8969V34.3418C67.2727 34.8676 67.6989 35.2939 68.2249 35.2939C68.7509 35.2939 69.177 34.8676 69.177 34.3418V27.8969C69.177 22.4722 64.7636 18.0588 59.3391 18.0588H41.9039C41.9075 18.0493 41.9116 18.0399 41.9151 18.0302C42.1648 17.3574 42.0678 16.602 41.656 16.0098C41.2391 15.4104 40.5548 15.0525 39.8259 15.0525H35.8978H33.4719V12.8366C33.4719 11.3976 32.3011 10.2268 30.862 10.2268H30.7375C29.2984 10.2268 28.1276 11.3976 28.1276 12.8366V15.0527H21.9238V12.8366C21.9238 11.3976 20.7531 10.2268 19.3139 10.2268H19.1895C17.7504 10.2268 16.5796 11.3976 16.5796 12.8366V15.0527H14.1538H10.2257C9.49676 15.0527 8.81248 15.4105 8.39556 16.0099C7.98373 16.6021 7.88674 17.3574 8.13633 18.0302C8.97917 20.3026 11.1743 21.8294 13.5987 21.8294C13.7862 21.8294 13.9708 21.8174 14.1538 21.7997V26.9689C14.1538 28.9213 14.6742 30.753 15.5795 32.3378C15.5037 32.7065 15.4638 33.0881 15.4638 33.4789V33.8326C15.4638 36.8802 17.8859 39.3714 20.9063 39.4855V46.1644V60.869H19.7011V59.1913C19.7011 58.6655 19.2749 58.2392 18.749 58.2392C18.223 58.2392 17.7968 58.6655 17.7968 59.1913V60.869H17.0354V59.1913C17.0354 58.6655 16.6092 58.2392 16.0832 58.2392C15.5572 58.2392 15.1311 58.6655 15.1311 59.1913V60.869H13.893C13.367 60.869 12.9409 61.2953 12.9409 61.8212C12.9409 62.347 13.367 62.7733 13.893 62.7733H72.0478C72.5738 62.7733 73 62.347 73 61.8212C73 61.2953 72.5738 60.8689 72.0478 60.8689ZM35.8978 16.957H39.8259C39.9786 16.957 40.0633 17.0551 40.0927 17.0974C40.1336 17.1561 40.1733 17.2507 40.1298 17.368C39.5626 18.8974 38.0849 19.9251 36.4528 19.9251C36.2643 19.9251 36.0792 19.911 35.8978 19.885V16.957ZM30.0319 12.8366C30.0319 12.4476 30.3484 12.1311 30.7375 12.1311H30.862C31.2509 12.1311 31.5676 12.4476 31.5676 12.8366V15.0527H30.6282H30.0321L30.0319 12.8366ZM18.484 12.8366C18.484 12.4476 18.8005 12.1311 19.1896 12.1311H19.314C19.703 12.1311 20.0196 12.4476 20.0196 12.8366V15.0527H19.4235H18.4841L18.484 12.8366ZM14.1538 19.8849C13.9724 19.9108 13.7873 19.925 13.5987 19.925C11.9668 19.925 10.489 18.8974 9.92167 17.3678C9.87825 17.2507 9.91799 17.156 9.95886 17.0972C9.98819 17.055 10.0729 16.9568 10.2257 16.9568H14.1538V19.8849ZM17.3682 33.8326V33.4789C17.3682 31.4089 19.0524 29.7248 21.1224 29.7248H28.9292C30.9993 29.7248 32.6833 31.4089 32.6833 33.4789V33.8326C32.6833 35.9026 30.9992 37.5867 28.9292 37.5867H21.1224C19.0523 37.5867 17.3682 35.9026 17.3682 33.8326ZM25.9118 60.8689H22.8106V58.8059H25.9118V60.8689ZM25.9119 56.9016H22.8106V49.9702C23.6067 50.5692 24.5959 50.9248 25.6668 50.9248H25.9119V56.9016ZM30.9174 60.8689H27.8162V50.9247H30.6002C30.7751 50.9247 30.9174 51.067 30.9174 51.2419V60.8689ZM35.9228 60.8689H32.8216V58.8059H35.9228V60.8689ZM57.262 60.8689H54.1608V58.8059H57.262V60.8689ZM57.262 56.9016H54.1608V50.9248H57.262V56.9016ZM62.2675 60.8689H59.1663V50.9247H61.9502C62.1252 50.9247 62.2675 51.067 62.2675 51.2419V60.8689ZM67.273 60.8689H64.1718V58.8059H67.273V60.8689Z" fill="#0C1E10"/>
<path d="M19.8629 23.0502V24.9644C19.8629 25.4902 20.289 25.9165 20.815 25.9165C21.341 25.9165 21.7672 25.4902 21.7672 24.9644V23.0502C21.7672 22.5244 21.341 22.0981 20.815 22.0981C20.289 22.0981 19.8629 22.5244 19.8629 23.0502Z" fill="#0C1E10"/>
<path d="M28.2844 23.0502V24.9644C28.2844 25.4902 28.7106 25.9165 29.2366 25.9165C29.7625 25.9165 30.1887 25.4902 30.1887 24.9644V23.0502C30.1887 22.5244 29.7625 22.0981 29.2366 22.0981C28.7106 22.0981 28.2844 22.5244 28.2844 23.0502Z" fill="#0C1E10"/>
<path d="M22.487 32.2473H20.9637C20.4377 32.2473 20.0115 32.6736 20.0115 33.1995C20.0115 33.7253 20.4377 34.1516 20.9637 34.1516H22.487C23.013 34.1516 23.4391 33.7253 23.4391 33.1995C23.4391 32.6736 23.0128 32.2473 22.487 32.2473Z" fill="#0C1E10"/>
<path d="M30.0401 33.1995C30.0401 32.6736 29.6139 32.2473 29.0879 32.2473H27.5646C27.0387 32.2473 26.6125 32.6736 26.6125 33.1995C26.6125 33.7253 27.0387 34.1516 27.5646 34.1516H29.0879C29.6139 34.1516 30.0401 33.7254 30.0401 33.1995Z" fill="#0C1E10"/>
</g>
<defs>
<clipPath id="clip0_263_1214">
<rect width="48" height="48" rx="24" fill="white"/>
</clipPath>
</defs>
</svg>
