<svg width="101" height="28" viewBox="0 0 101 28" fill="none" xmlns="http://www.w3.org/2000/svg">
<path d="M35 22.6419H36.3948V5H35V22.6419Z" fill="#FAFAFA"/>
<path d="M38.5383 16.244C38.5383 18.13 39.1328 19.7294 40.3447 21.0186C41.5565 22.3077 43.0657 22.9523 44.8949 22.9523C46.7242 22.9523 48.2333 22.3077 49.4452 21.0186C50.6571 19.7294 51.2516 18.13 51.2516 16.244C51.2516 14.3581 50.6571 12.7825 49.4452 11.4934C48.2333 10.2042 46.7242 9.55968 44.8949 9.55968C43.0657 9.55968 41.5565 10.2042 40.3447 11.4934C39.1328 12.7825 38.5383 14.3581 38.5383 16.244ZM44.8949 21.6393C43.4773 21.6393 42.2882 21.1141 41.3279 20.0875C40.3904 19.0371 39.9102 17.748 39.9102 16.244C39.9102 14.7401 40.3904 13.4748 41.3279 12.4483C42.2882 11.3979 43.4773 10.8727 44.8949 10.8727C46.3355 10.8727 47.5245 11.3979 48.462 12.4244C49.3994 13.4509 49.8796 14.7401 49.8796 16.244C49.8796 17.748 49.3994 19.0371 48.462 20.0875C47.5245 21.1141 46.3355 21.6393 44.8949 21.6393Z" fill="#FAFAFA"/>
<path d="M58.0019 22.6419V14.1671L62.2321 20.3501H63.8326L68.0628 14.1671V22.6419H72.2929V5H69.1146L63.0552 14.0716L56.973 5H53.8175V22.6419H58.0019Z" fill="#FAFAFA"/>
<path d="M80.1435 23C82.1786 23 83.8477 22.3316 85.1054 20.9947C86.3858 19.6578 87.0261 18.0106 87.0261 16.0531C87.0261 14.0955 86.3858 12.4483 85.1054 11.1114C83.8477 9.75066 82.1786 9.08223 80.1435 9.08223C78.1085 9.08223 76.4622 9.75066 75.1817 11.1114C73.9241 12.4483 73.2838 14.0955 73.2838 16.0531C73.2838 18.0106 73.9241 19.6578 75.1817 20.9947C76.4622 22.3316 78.1085 23 80.1435 23ZM80.1435 19.061C79.3432 19.061 78.6801 18.7745 78.1313 18.2016C77.5826 17.6048 77.3082 16.8886 77.3082 16.0292C77.3082 15.1936 77.5826 14.5013 78.1313 13.9284C78.6801 13.3316 79.3432 13.0451 80.1435 13.0451C80.9438 13.0451 81.6069 13.3316 82.1557 13.9045C82.7273 14.4775 83.0017 15.1936 83.0017 16.0292C83.0017 16.8886 82.7273 17.6048 82.1786 18.2016C81.6298 18.7745 80.9438 19.061 80.1435 19.061Z" fill="#FAFAFA"/>
<path d="M94.1175 23C96.1525 23 97.8217 22.3316 99.0793 20.9947C100.36 19.6578 101 18.0106 101 16.0531C101 14.0955 100.36 12.4483 99.0793 11.1114C97.8217 9.75066 96.1525 9.08223 94.1175 9.08223C92.0824 9.08223 90.4361 9.75066 89.1556 11.1114C87.898 12.4483 87.2578 14.0955 87.2578 16.0531C87.2578 18.0106 87.898 19.6578 89.1556 20.9947C90.4361 22.3316 92.0824 23 94.1175 23ZM94.1175 19.061C93.3172 19.061 92.6541 18.7745 92.1053 18.2016C91.5565 17.6048 91.2821 16.8886 91.2821 16.0292C91.2821 15.1936 91.5565 14.5013 92.1053 13.9284C92.6541 13.3316 93.3172 13.0451 94.1175 13.0451C94.9178 13.0451 95.5808 13.3316 96.1296 13.9045C96.7013 14.4775 96.9757 15.1936 96.9757 16.0292C96.9757 16.8886 96.7013 17.6048 96.1525 18.2016C95.6037 18.7745 94.9178 19.061 94.1175 19.061Z" fill="#FAFAFA"/>
<path fill-rule="evenodd" clip-rule="evenodd" d="M4.67356 1.33018C2.88526 3.25384 2.22412 4.83959 2.22803 7.19573C2.23102 9.03325 2.70953 10.6647 3.61461 11.9235C3.96425 12.4098 3.92429 12.6344 3.48757 12.639C3.33071 12.6406 2.95998 12.7568 2.66384 12.8972C0.97474 13.6978 -0.652402 16.4666 0.264916 16.9791C0.413702 17.0623 1.55244 17.1198 3.04928 17.1198H5.58176L5.63214 18.5804C5.67731 19.8888 5.72261 20.1172 6.06704 20.7722C6.29445 21.2047 6.91159 21.9542 7.57716 22.6065L8.70275 23.7095L8.76328 24.7481C8.85987 26.403 9.54119 27.3711 10.9125 27.8019C11.781 28.0748 16.2619 28.0625 17.1575 27.785C18.4436 27.3863 19.2785 26.0824 19.2785 24.4726V23.7216L20.5642 22.4248C22.1405 20.8347 22.4026 20.252 22.4026 18.3374V17.1198H24.9859C27.3232 17.1198 27.5897 17.0961 27.7846 16.8713C27.903 16.7346 28 16.4711 28 16.2858C28 15.8598 27.2212 14.4943 26.5931 13.819C26.09 13.278 24.9503 12.636 24.4934 12.636C24.3458 12.636 24.225 12.6136 24.225 12.586C24.225 12.5586 24.4773 12.1433 24.7857 11.6633C25.6567 10.3077 25.9827 9.08991 25.9805 7.20117C25.9784 5.42302 25.729 4.43646 24.9286 3.04012C24.3829 2.08793 22.443 0 22.104 0C21.6528 0 21.3613 0.265356 21.3613 0.676095C21.3613 0.893217 21.4258 1.11265 21.5048 1.1636C21.7427 1.317 22.2699 2.62082 22.2705 3.0571C22.2717 3.95235 22.002 4.50019 21.0496 5.53702L20.1063 6.56393L19.4739 6.33907C18.9302 6.14572 18.164 6.1142 13.9998 6.1142C10.1678 6.1142 9.04953 6.15415 8.63806 6.30564L8.11828 6.49708L7.26058 5.59232C6.78871 5.09462 6.31228 4.46024 6.2019 4.18238C5.83 3.24718 6.00222 2.12203 6.64839 1.26455C6.96496 0.844575 6.98423 0.50218 6.70775 0.213454C6.28508 -0.227584 5.95145 -0.0444298 4.67356 1.33018ZM24.2439 4.88321C24.5821 5.79748 24.7081 7.67087 24.4997 8.68515C24.2961 9.67606 23.7886 10.7378 23.1857 11.4336L22.6737 12.0246L22.6683 10.9932C22.6617 9.70242 22.4318 8.89181 21.821 8.0043L21.3433 7.31027L22.1997 6.38431C23.0642 5.44979 23.5626 4.56418 23.5755 3.94026C23.5822 3.61227 23.589 3.60969 23.7735 3.86417C23.8785 4.00915 24.0903 4.46771 24.2439 4.88321ZM4.70063 4.04217C4.70337 4.54774 5.35214 5.69871 6.11286 6.54763C6.87463 7.39764 6.89793 7.44424 6.66895 7.66068C6.53735 7.78487 6.2623 8.20621 6.05754 8.59684C5.73667 9.20894 5.67796 9.49046 5.63266 10.6319C5.60389 11.3605 5.53829 11.9567 5.48713 11.9567C5.29148 11.9567 4.30921 10.4121 4.03455 9.67294C3.68686 8.73665 3.5494 6.57181 3.77772 5.62534C4.07034 4.41269 4.69686 3.33781 4.70063 4.04217ZM19.068 7.73854C19.8221 8.03786 20.9707 9.47144 20.9707 10.1132C20.9707 10.2473 20.7105 10.395 20.2223 10.5384C19.8107 10.6592 19.1871 10.8437 18.837 10.9482C17.1489 11.4519 16.0729 12.6982 15.8298 14.4311C15.7773 14.8055 15.8906 15.971 16.1465 17.691C16.3657 19.1634 16.5449 20.4016 16.5449 20.4423C16.5449 20.4831 15.4027 20.5165 14.0066 20.5165C12.4592 20.5165 11.4682 20.4653 11.4682 20.3851C11.4682 20.313 11.648 19.0748 11.8676 17.6338C12.3653 14.3689 12.3071 13.7753 11.3543 12.4073C10.8291 11.6531 10.1186 11.2418 8.49435 10.7518C7.75367 10.5282 7.11453 10.311 7.07418 10.2687C6.90079 10.0879 7.34598 9.08964 7.83425 8.5645C8.7254 7.60593 8.6348 7.62006 13.9656 7.61408C16.6992 7.61109 18.8807 7.66422 19.068 7.73854ZM8.49109 12.2856C9.42559 12.5761 9.69244 12.7247 10.0781 13.1704C10.8905 14.1091 10.9135 14.397 10.436 17.6914C9.92103 21.2445 9.97127 21.0346 9.50526 21.5748L9.11969 22.0219L8.39464 21.371C7.99579 21.0131 7.51377 20.4452 7.32346 20.1089L6.97733 19.4975L6.93568 15.6469C6.89584 11.9768 6.90509 11.7997 7.13093 11.8664C7.26123 11.9049 7.8733 12.0935 8.49109 12.2856ZM20.8442 19.7263C20.753 20.0548 20.4041 20.5335 19.8291 21.119C19.3474 21.6096 18.9239 22.008 18.888 22.0041C18.8522 22.0002 18.6472 21.7674 18.4324 21.4865C18.0666 21.0083 18.0138 20.7807 17.5976 17.895C17.0903 14.3776 17.1114 14.0981 17.9555 13.1537C18.3598 12.7012 18.6287 12.5572 19.6703 12.2351L20.9057 11.8529L20.9446 15.5393C20.9692 17.8757 20.9325 19.4091 20.8442 19.7263ZM7.97965 14.0219C7.89374 14.1116 7.82344 14.3439 7.82344 14.5382C7.82344 14.7325 7.89374 14.9648 7.97965 15.0545C8.2176 15.3029 9.7121 15.2648 9.96203 15.0041C10.2337 14.7204 10.2207 14.3597 9.92844 14.0837C9.64272 13.8139 8.22216 13.7688 7.97965 14.0219ZM18.0028 14.0219C17.9169 14.1116 17.8466 14.3439 17.8466 14.5382C17.8466 15.0768 18.0794 15.2176 18.9699 15.2176C19.8307 15.2176 20.1897 15.0176 20.1897 14.5382C20.1897 14.0589 19.8307 13.8589 18.9699 13.8589C18.5127 13.8589 18.0908 13.93 18.0028 14.0219ZM5.46682 14.1897C5.54584 14.2408 5.61053 14.5845 5.61053 14.9538V15.6252H3.71849C1.90273 15.6252 1.83166 15.6149 1.95818 15.3681C2.13339 15.0264 2.84686 14.407 3.33253 14.1749C3.72396 13.9878 5.16938 13.9978 5.46682 14.1897ZM24.8397 14.3411C25.2059 14.5316 25.6598 14.8984 25.8481 15.1563L26.1909 15.6252H22.3883L22.428 14.983C22.4606 14.456 22.526 14.3102 22.7931 14.1699C23.3147 13.8955 24.1115 13.9623 24.8397 14.3411ZM17.0699 22.2172C17.6356 22.5225 17.8469 23.0667 17.8447 24.2122C17.8425 25.3636 17.6889 25.7548 17.0667 26.1923C16.6243 26.5034 16.5647 26.5086 13.8366 26.4681L11.0572 26.4269L10.6118 25.9195C10.1819 25.4294 10.1665 25.3742 10.1665 24.3162C10.1665 23.0792 10.3602 22.539 10.9167 22.2238C11.443 21.9258 16.5198 21.9204 17.0699 22.2172Z" fill="#FAFAFA"/>
</svg>
