<svg width="180" height="52" viewBox="0 0 180 52" fill="none" xmlns="http://www.w3.org/2000/svg">
<path d="M60.3408 42.1744H62.887V10.1961H60.3408V42.1744Z" fill="#0C1E10"/>
<path d="M66.8 30.5774C66.8 33.9959 67.8853 36.8952 70.0976 39.2319C72.3099 41.5686 75.0649 42.737 78.4042 42.737C81.7436 42.737 84.4985 41.5686 86.7108 39.2319C88.9232 36.8952 90.0084 33.9959 90.0084 30.5774C90.0084 27.1589 88.9232 24.3029 86.7108 21.9662C84.4985 19.6295 81.7436 18.4611 78.4042 18.4611C75.0649 18.4611 72.3099 19.6295 70.0976 21.9662C67.8853 24.3029 66.8 27.1589 66.8 30.5774ZM78.4042 40.357C75.8162 40.357 73.6457 39.405 71.8925 37.5443C70.1811 35.6403 69.3045 33.3036 69.3045 30.5774C69.3045 27.8512 70.1811 25.5578 71.8925 23.6971C73.6457 21.7931 75.8162 20.8411 78.4042 20.8411C81.034 20.8411 83.2045 21.7931 84.9159 23.6538C86.6274 25.5145 87.5039 27.8512 87.5039 30.5774C87.5039 33.3036 86.6274 35.6403 84.9159 37.5443C83.2045 39.405 81.034 40.357 78.4042 40.357Z" fill="#0C1E10"/>
<path d="M101.506 42.1744V26.8127L109.228 38.0203H112.15L119.872 26.8127V42.1744H127.594V10.1961H121.792L110.731 26.6396L99.6275 10.1961H93.8671V42.1744H101.506Z" fill="#00DA30"/>
<path d="M141.926 42.8235C145.641 42.8235 148.688 41.6119 150.984 39.1886C153.321 36.7654 154.49 33.7796 154.49 30.2312C154.49 26.6829 153.321 23.6971 150.984 21.2738C148.688 18.8073 145.641 17.5957 141.926 17.5957C138.211 17.5957 135.206 18.8073 132.868 21.2738C130.572 23.6971 129.403 26.6829 129.403 30.2312C129.403 33.7796 130.572 36.7654 132.868 39.1886C135.206 41.6119 138.211 42.8235 141.926 42.8235ZM141.926 35.6836C140.465 35.6836 139.254 35.1643 138.253 34.1258C137.251 33.0439 136.75 31.7458 136.75 30.188C136.75 28.6734 137.251 27.4185 138.253 26.38C139.254 25.2982 140.465 24.7789 141.926 24.7789C143.387 24.7789 144.597 25.2982 145.599 26.3367C146.643 27.3753 147.144 28.6734 147.144 30.188C147.144 31.7458 146.643 33.0439 145.641 34.1258C144.639 35.1643 143.387 35.6836 141.926 35.6836Z" fill="#00DA30"/>
<path d="M167.436 42.8235C171.151 42.8235 174.198 41.6119 176.494 39.1886C178.831 36.7654 180 33.7796 180 30.2312C180 26.6829 178.831 23.6971 176.494 21.2738C174.198 18.8073 171.151 17.5957 167.436 17.5957C163.721 17.5957 160.715 18.8073 158.378 21.2738C156.082 23.6971 154.913 26.6829 154.913 30.2312C154.913 33.7796 156.082 36.7654 158.378 39.1886C160.715 41.6119 163.721 42.8235 167.436 42.8235ZM167.436 35.6836C165.975 35.6836 164.764 35.1643 163.762 34.1258C162.761 33.0439 162.26 31.7458 162.26 30.188C162.26 28.6734 162.761 27.4185 163.762 26.38C164.764 25.2982 165.975 24.7789 167.436 24.7789C168.897 24.7789 170.107 25.2982 171.109 26.3367C172.153 27.3753 172.653 28.6734 172.653 30.188C172.653 31.7458 172.153 33.0439 171.151 34.1258C170.149 35.1643 168.897 35.6836 167.436 35.6836Z" fill="#00DA30"/>
<path fill-rule="evenodd" clip-rule="evenodd" d="M8.8958 2.47033C5.4919 6.04285 4.23347 8.98781 4.2409 13.3635C4.2466 16.776 5.15741 19.8058 6.88017 22.1436C7.54569 23.0467 7.46962 23.4639 6.63835 23.4724C6.33978 23.4755 5.63413 23.6912 5.07044 23.9519C1.85535 25.4389 -1.2418 30.5809 0.504249 31.5327C0.787453 31.6871 2.95496 31.7938 5.8041 31.7938H10.6245L10.7204 34.5064C10.8064 36.9364 10.8926 37.3605 11.5482 38.577C11.9811 39.3802 13.1557 40.7721 14.4226 41.9835L16.5651 44.0319L16.6803 45.9608C16.8642 49.0342 18.161 50.832 20.7713 51.6322C22.4244 52.1389 30.9535 52.1161 32.6581 51.6006C35.1061 50.8603 36.6954 48.4387 36.6954 45.449V44.0544L39.1426 41.6461C42.1429 38.6931 42.6419 37.6108 42.6419 34.0552V31.7938H47.5589C52.0079 31.7938 52.5151 31.7499 52.886 31.3323C53.1115 31.0785 53.2961 30.5892 53.2961 30.245C53.2961 29.454 51.8137 26.918 50.6182 25.6639C49.6605 24.6591 47.4913 23.4669 46.6216 23.4669C46.3406 23.4669 46.1107 23.4252 46.1107 23.374C46.1107 23.323 46.5909 22.5519 47.1779 21.6604C48.8357 19.1429 49.4564 16.8813 49.4521 13.3736C49.4482 10.0713 48.9735 8.23915 47.4499 5.64593C46.4112 3.87759 42.7187 0 42.0735 0C41.2147 0 40.6597 0.492804 40.6597 1.2556C40.6597 1.65883 40.7826 2.06635 40.933 2.16097C41.3857 2.44585 42.3892 4.86723 42.3904 5.67747C42.3926 7.34009 41.8792 8.35749 40.0665 10.283L38.2709 12.1902L37.0673 11.7726C36.0323 11.4135 34.5739 11.3549 26.6477 11.3549C19.3538 11.3549 17.2252 11.4291 16.442 11.7105L15.4526 12.066L13.82 10.3857C12.9218 9.46144 12.015 8.2833 11.8049 7.76728C11.097 6.03048 11.4248 3.94092 12.6548 2.34845C13.2573 1.5685 13.294 0.932619 12.7677 0.396414C11.9632 -0.422656 11.3282 -0.0825124 8.8958 2.47033ZM46.1466 9.06881C46.7903 10.7668 47.0302 14.2459 46.6335 16.1296C46.246 17.9698 45.2799 19.9415 44.1325 21.2337L43.1577 22.3314L43.1476 20.4159C43.135 18.0188 42.6974 16.5134 41.5348 14.8651L40.6255 13.5762L42.2556 11.8566C43.9011 10.121 44.8498 8.47634 44.8743 7.31763C44.8872 6.7085 44.9001 6.7037 45.2512 7.17632C45.4511 7.44556 45.8543 8.29718 46.1466 9.06881ZM8.94734 7.50688C8.95254 8.4458 10.1874 10.5833 11.6354 12.1599C13.0854 13.7385 13.1297 13.825 12.6939 14.227C12.4434 14.4576 11.9199 15.2401 11.5301 15.9656C10.9194 17.1023 10.8076 17.6251 10.7214 19.745C10.6666 21.098 10.5417 22.2052 10.4444 22.2052C10.072 22.2052 8.20228 19.3367 7.67949 17.964C7.01769 16.2252 6.75604 12.2048 7.19063 10.4471C7.74762 8.19499 8.94015 6.19879 8.94734 7.50688ZM36.2947 14.3716C37.73 14.9275 39.9164 17.5898 39.9164 18.7816C39.9164 19.0306 39.4211 19.3049 38.4917 19.5714C37.7082 19.7957 36.5214 20.1384 35.8549 20.3324C32.6418 21.2678 30.5937 23.5824 30.1309 26.8007C30.031 27.4959 30.2466 29.6604 30.7337 32.8546C31.151 35.5892 31.4921 37.8887 31.4921 37.9644C31.4921 38.0401 29.3179 38.1021 26.6606 38.1021C23.7153 38.1021 21.829 38.007 21.829 37.8581C21.829 37.7241 22.1712 35.4246 22.5892 32.7484C23.5364 26.6851 23.4257 25.5827 21.6122 23.0422C20.6125 21.6415 19.2601 20.8777 16.1684 19.9675C14.7586 19.5525 13.542 19.149 13.4652 19.0705C13.1352 18.7346 13.9826 16.8808 14.912 15.9055C16.6082 14.1253 16.4358 14.1515 26.5825 14.1404C31.7857 14.1349 35.9382 14.2335 36.2947 14.3716ZM16.1622 22.8161C17.941 23.3556 18.4489 23.6316 19.1831 24.4593C20.7294 26.2027 20.773 26.7374 19.8642 32.8554C18.884 39.4541 18.9796 39.0643 18.0926 40.0676L17.3587 40.8977L15.9786 39.6891C15.2194 39.0244 14.3019 37.9697 13.9397 37.3451L13.2809 36.2096L13.2016 29.0586C13.1258 22.2426 13.1434 21.9138 13.5732 22.0377C13.8213 22.1091 14.9863 22.4593 16.1622 22.8161ZM39.6756 36.6346C39.5019 37.2447 38.8378 38.1337 37.7434 39.221C36.8264 40.1321 36.0204 40.872 35.952 40.8647C35.8839 40.8576 35.4937 40.4251 35.0848 39.9035C34.3886 39.0153 34.288 38.5927 33.4959 33.2336C32.5303 26.7013 32.5704 26.1822 34.177 24.4283C34.9466 23.588 35.4585 23.3205 37.4411 22.7222L39.7925 22.0124L39.8666 28.8587C39.9134 33.1978 39.8435 36.0454 39.6756 36.6346ZM15.1887 26.0407C15.0252 26.2072 14.8914 26.6387 14.8914 26.9995C14.8914 27.3604 15.0252 27.7919 15.1887 27.9584C15.6416 28.4197 18.4863 28.349 18.962 27.8648C19.4791 27.3379 19.4544 26.668 18.8981 26.1555C18.3543 25.6543 15.6503 25.5706 15.1887 26.0407ZM34.2672 26.0407C34.1036 26.2072 33.9699 26.6387 33.9699 26.9995C33.9699 27.9998 34.4129 28.2612 36.1079 28.2612C37.7464 28.2612 38.4298 27.8898 38.4298 26.9995C38.4298 26.1093 37.7464 25.7379 36.1079 25.7379C35.2377 25.7379 34.4347 25.8701 34.2672 26.0407ZM10.4057 26.3523C10.5561 26.4472 10.6793 27.0856 10.6793 27.7714V29.0182H7.07789C3.62172 29.0182 3.48644 28.999 3.72727 28.5408C4.06077 27.9062 5.41881 26.7558 6.34325 26.3248C7.0883 25.9773 9.83956 25.996 10.4057 26.3523ZM47.2807 26.6334C47.9777 26.9872 48.8416 27.6685 49.2002 28.1474L49.8526 29.0182H42.6146L42.6902 27.8257C42.7521 26.8469 42.8768 26.5761 43.3852 26.3155C44.378 25.806 45.8946 25.9299 47.2807 26.6334ZM32.4914 41.2606C33.5682 41.8276 33.9704 42.8382 33.9661 44.9656C33.9619 47.1038 33.6696 47.8303 32.4852 48.6428C31.6433 49.2206 31.5298 49.2302 26.337 49.155L21.0466 49.0786L20.1989 48.1361C19.3805 47.226 19.3513 47.1235 19.3513 45.1586C19.3513 42.8614 19.72 41.8581 20.7792 41.2727C21.7809 40.7193 31.4443 40.7092 32.4914 41.2606Z" fill="#0C1E10"/>
</svg>
