<svg width="128" height="128" viewBox="0 0 128 128" fill="none" xmlns="http://www.w3.org/2000/svg">
<g clip-path="url(#clip0_397_76)">
<path d="M97.5157 83.4491C97.1275 83.0459 96.6832 82.7285 96.2203 82.4485L98.4192 80.1675C100.786 77.7072 100.786 73.7013 98.4192 71.2373L97.5195 70.3003C97.1349 69.9008 96.6869 69.5797 96.2165 69.2997L98.4192 67.0112C100.786 64.5472 100.786 60.5451 98.4192 58.0811L97.5195 57.144C96.8923 56.4944 96.1269 56.0091 95.3019 55.688L100.2 50.5957C102.735 47.9563 102.645 43.704 100.2 41.1579C97.7472 38.6043 93.6107 38.4213 90.8667 40.5157V22.2C90.8667 18.0821 87.5179 14.7333 83.4 14.7333H49.8C45.6821 14.7333 42.3333 18.0821 42.3333 22.2V32.3621C41.1349 31.8245 39.8208 31.5333 38.4693 31.5333C35.3893 31.5333 33.0896 34.2699 33.5227 37.2267L34.8667 46.4667C34.6277 56.7147 35.5088 59.44 33.7952 63.7147C32.0293 68.1312 31.1333 72.7867 31.1333 77.5467V96.0453C31.1333 100.943 29.3787 105.689 26.1904 109.411L24.3813 111.187C22.7573 113.076 25.6432 115.458 27.2149 113.613L29.024 111.837C32.7909 107.443 34.8667 101.836 34.8667 96.0453V77.5467C34.8667 73.2645 35.6731 69.0757 37.2635 65.0997C39.3728 59.8245 38.3163 56.4907 38.5813 46.2016L37.2149 36.6928C37.1104 35.9723 37.6741 35.2667 38.4693 35.2667C39.9253 35.2667 41.288 35.8379 42.3333 36.8085V96.8667C42.3333 100.985 45.6821 104.333 49.8 104.333H70.3296C69.3141 105.017 68.952 105.375 68.1232 105.722C64.3675 107.432 62.5195 107.649 60.5072 109.661L46.0821 122.086C45.3541 122.814 45.3541 123.997 46.0821 124.725C46.8101 125.453 47.9936 125.453 48.7216 124.725L63.1467 112.3C64.4197 111.031 65.4016 111.012 69.5605 109.168C71.1061 108.526 71.5392 107.977 76.8443 104.337H83.4C86.816 104.337 89.672 102.015 90.5568 98.7296C92.2853 98.7072 93.9056 98.0091 95.1264 96.7435L98.4192 93.3237C100.805 90.8411 100.801 86.8651 98.4192 84.3899L97.5157 83.4491ZM95.7275 77.5765L92.4347 81C91.3781 82.0939 89.5787 82.0976 88.5259 81L87.8763 80.3243C86.8981 79.3051 86.8757 77.6101 87.8763 76.5723C88.2347 76.1989 91.7776 72.5179 91.4155 72.8949C92.3675 71.8981 93.8832 71.9093 94.8277 72.8949L95.7275 73.832C96.7205 74.8624 96.7205 76.5461 95.7275 77.5765ZM95.7275 60.6757C96.7243 61.7099 96.7243 63.3936 95.7275 64.4277L92.4347 67.8475C91.3819 68.9413 89.5749 68.9376 88.5259 67.8475L87.8763 67.1717C86.9205 66.1749 86.8608 64.5248 87.8501 63.4608C88.2085 63.0875 91.7776 59.3616 91.4192 59.7387C92.3749 58.7419 93.8907 58.7605 94.8315 59.7387L95.7275 60.6757ZM92.7931 43.7488C95.7237 40.7061 100.383 45.0331 97.5083 48.0123L90.8667 54.9152V45.7648L92.7931 43.7488ZM74.7797 18.4667L72.9131 22.2H60.2869L58.4203 18.4667H74.7797ZM83.4 100.6H49.8C47.7429 100.6 46.0667 98.9237 46.0667 96.8667V95.8288C47.168 96.4709 48.4336 96.8667 49.8 96.8667H77.8C80.2715 96.8667 80.2677 93.1333 77.8 93.1333H49.8C47.7429 93.1333 46.0667 91.4571 46.0667 89.4V22.2C46.0667 20.1429 47.7429 18.4667 49.8 18.4667H54.2427L57.4608 24.9067C57.7819 25.5376 58.4277 25.9333 59.1333 25.9333H74.0667C74.7723 25.9333 75.4181 25.5339 75.7355 24.9029L78.9573 18.4667H83.4C85.4571 18.4667 87.1333 20.1429 87.1333 22.2V58.8016C85.7893 60.2427 85.1845 60.7392 84.7291 61.4C82.7168 64.032 83.0715 67.56 85.1845 69.7627C85.5691 70.1248 86.0357 70.7781 87.1333 71.4576V71.9579L85.1845 73.9851C82.8288 76.4304 82.7765 80.4139 85.1845 82.9189C85.5691 83.2811 86.0357 83.9344 87.1333 84.6139V85.1179L85.1883 87.1413C82.8213 89.6053 82.8213 93.6075 85.1883 96.0677C85.6699 96.5344 86.0059 97.0347 86.9765 97.6768C86.592 99.3269 85.1733 100.6 83.4 100.6ZM95.7275 90.7291L92.4347 94.1488C91.3819 95.2464 89.5787 95.2427 88.5296 94.1488L87.88 93.4693C86.8832 92.4352 86.8832 90.7515 87.88 89.7173L91.4192 86.04C92.3899 85.032 93.8981 85.0693 94.8277 86.0363L95.7275 86.9733C96.7168 88.0037 96.7168 89.6987 95.7275 90.7291Z" fill="#0C1E10"/>
<path d="M67.0009 67.7273L67.0258 67.7026" stroke="#00DA30" stroke-width="3" stroke-linecap="round" stroke-linejoin="round"/>
<path d="M62.7418 63.4997C65.0941 61.1649 68.9078 61.1649 71.26 63.4997" stroke="#00DA30" stroke-width="3" stroke-linecap="round" stroke-linejoin="round"/>
<path d="M58.4828 59.2721C63.1873 54.6025 70.8147 54.6025 75.5192 59.2721" stroke="#00DA30" stroke-width="3" stroke-linecap="round" stroke-linejoin="round"/>
<path d="M54.2 55.5355C61.2692 48.5185 72.7307 48.5185 79.7999 55.5355" stroke="#00DA30" stroke-width="3" stroke-linecap="round" stroke-linejoin="round"/>
</g>
<rect x="2" y="2" width="124" height="124" rx="62" stroke="#0C1E10" stroke-width="4" stroke-linejoin="round"/>
<defs>
<clipPath id="clip0_397_76">
<rect width="112" height="112" fill="white" transform="translate(5 11)"/>
</clipPath>
</defs>
</svg>
