<svg width="28" height="28" viewBox="0 0 28 28" fill="none" xmlns="http://www.w3.org/2000/svg">
<path fill-rule="evenodd" clip-rule="evenodd" d="M14 2C7.37258 2 2 7.37258 2 14C2 20.6274 7.37258 26 14 26C20.6274 26 26 20.6274 26 14C26 7.37258 20.6274 2 14 2ZM0 14C0 6.26801 6.26801 0 14 0C21.732 0 28 6.26801 28 14C28 21.732 21.732 28 14 28C6.26801 28 0 21.732 0 14ZM14 8.12421C14.5523 8.12421 15 8.57192 15 9.12421L15 12.9992H18.875C19.4273 12.9992 19.875 13.4469 19.875 13.9992C19.875 14.5515 19.4273 14.9992 18.875 14.9992H15V18.8742C15 19.4265 14.5523 19.8742 14 19.8742C13.4477 19.8742 13 19.4265 13 18.8742V14.9992H9.125C8.57272 14.9992 8.125 14.5515 8.125 13.9992C8.125 13.4469 8.57272 12.9992 9.125 12.9992H13L13 9.12421C13 8.57192 13.4477 8.12421 14 8.12421Z" fill="#FAFAFA"/>
</svg>
