<svg width="25" height="24" viewBox="0 0 25 24" fill="none" xmlns="http://www.w3.org/2000/svg">
<path d="M24.2676 3.21417H21.22C21.6366 2.61576 21.862 1.90189 21.862 1.15188V0.750207C21.862 0.335835 21.534 0 21.1296 0C20.7251 0 20.3972 0.335835 20.3972 0.750207V1.15188C20.3972 2.29165 19.4973 3.21417 18.3838 3.21417C17.271 3.21417 16.3704 2.29243 16.3704 1.15188V0.750207C16.3704 0.335835 16.0425 0 15.638 0C15.2336 0 14.9055 0.335835 14.9055 0.750207V1.15188C14.9055 1.90189 15.131 2.61576 15.5476 3.21417H12.5C12.0955 3.21417 11.7676 3.55001 11.7676 3.96438V4.76792C11.7676 6.08586 12.8128 7.12521 14.069 7.12521H14.5771C13.7903 7.7162 12.8445 8.03543 11.8504 8.03543H6.61621C5.7188 8.03543 4.8645 8.31871 4.14829 8.8419C1.84422 8.90324 0 10.8298 0 13.2044V16.8213C0 17.2356 0.327873 17.5715 0.732422 17.5715C1.13697 17.5715 1.46484 17.2356 1.46484 16.8213V13.2044C1.46484 12.8594 1.53198 11.6984 2.61669 10.8872C2.44427 11.3656 2.35348 11.8765 2.35348 12.4017V15.2685C2.35348 16.3791 2.52743 17.4771 2.87037 18.5313L3.16124 19.4247L3.93677 23.3967C4.00524 23.7476 4.30584 24 4.65488 24H7.00836C7.41291 24 7.74078 23.664 7.74078 23.2498V19.9821H13.7289V23.2498C13.7289 23.6642 14.0568 24 14.4613 24H17.207C17.6115 24 17.9394 23.6642 17.9394 23.2498V19.6171C19.4202 18.4543 20.2929 16.6554 20.2929 14.7275V11.9467H20.3449C21.6318 11.9467 22.6465 10.8761 22.6465 9.58937V8.78583C22.6465 8.15851 22.4089 7.56889 21.978 7.12521H22.6984C23.9639 7.12521 25 6.07746 25 4.76792V3.96438C25 3.55001 24.6721 3.21417 24.2676 3.21417ZM16.3704 6.37501V4.71459H20.3972V6.42971C20.3798 6.42932 20.3625 6.42834 20.3451 6.42834H16.4227C16.4051 6.42834 16.3877 6.42932 16.3706 6.42971V6.37501H16.3704ZM13.4773 5.37336C13.3194 5.21179 13.2324 4.99689 13.2324 4.76792V4.71459H14.9055V5.6248H14.069C13.8456 5.6248 13.6356 5.53571 13.4773 5.37336ZM10.8973 9.53584C10.5654 10.9771 9.29985 12.0533 7.79305 12.0533C7.3885 12.0533 7.06062 12.3892 7.06062 12.8035C7.06062 14.1621 5.98144 15.2675 4.65488 15.2675H3.81832V12.4017C3.81832 10.819 5.0684 9.53584 6.61621 9.53584H10.8973ZM18.8282 14.7275C18.8282 16.2902 18.0702 17.7407 16.8007 18.6077C16.597 18.7468 16.4745 18.981 16.4745 19.2319V22.4996H15.1937V19.2319C15.1937 18.8177 14.8657 18.4817 14.4613 18.4817H7.00836C6.604 18.4817 6.27594 18.8177 6.27594 19.2319V22.4996H5.25532L4.5887 19.0848C4.58279 19.0543 4.57497 19.0242 4.56524 18.9947L4.26006 18.0569C4.12273 17.6346 4.01745 17.204 3.94402 16.7679H4.65488C6.55575 16.7679 8.14095 15.3572 8.46481 13.5041C10.4828 13.204 12.0844 11.5729 12.3932 9.51122C12.9921 9.4573 13.5729 9.31469 14.1211 9.08923V9.58937C14.1211 10.8854 15.1442 11.9467 16.4225 11.9467H18.8282V14.7275ZM21.1817 9.58937C21.1817 10.0612 20.8086 10.4462 20.3451 10.4462H16.4225C15.9618 10.4462 15.5859 10.0641 15.5859 9.58937V8.78583C15.5859 8.3189 15.9544 7.92876 16.4225 7.92876H20.3451C20.8008 7.92876 21.1817 8.3062 21.1817 8.78583V9.58937ZM23.5352 4.76792C23.5352 4.99689 23.4482 5.21179 23.2897 5.37395C23.1319 5.53571 22.9219 5.6248 22.6986 5.6248H21.862V4.71459H23.5352V4.76792Z" fill="#00D72F"/>
</svg>
