<svg width="24" height="24" viewBox="0 0 24 24" fill="none" xmlns="http://www.w3.org/2000/svg">
<path fill-rule="evenodd" clip-rule="evenodd" d="M5.91071 1C6.463 1 6.91071 1.44772 6.91071 2V2.6875H16.375V2C16.375 1.44772 16.8227 1 17.375 1C17.9273 1 18.375 1.44772 18.375 2V2.80231C20.3094 3.2546 21.75 4.99031 21.75 7.0625L21.75 18.3126C21.75 20.7288 19.7912 22.6876 17.375 22.6876H6.125C3.70875 22.6876 1.75 20.7288 1.75 18.3126V7.0625C1.75 5.06758 3.08521 3.38451 4.91071 2.85821V2C4.91071 1.44772 5.35843 1 5.91071 1ZM6.125 4.6875C4.81332 4.6875 3.75 5.75082 3.75 7.0625V7.47649C3.79095 7.47138 3.83267 7.46875 3.875 7.46875H19.625C19.6673 7.46875 19.7091 7.47138 19.75 7.47649V7.0625C19.75 5.75082 18.6867 4.6875 17.375 4.6875H6.125ZM19.75 9.46101C19.7091 9.46612 19.6673 9.46875 19.625 9.46875H3.875C3.83267 9.46875 3.79095 9.46612 3.75 9.46101V18.3126C3.75 19.6243 4.81332 20.6876 6.125 20.6876H17.375C18.6867 20.6876 19.75 19.6243 19.75 18.3126L19.75 9.46101ZM12.3125 11.8842C12.8648 11.8842 13.3125 12.3319 13.3125 12.8842V12.9688C13.3125 13.5211 12.8648 13.9688 12.3125 13.9688C11.7602 13.9688 11.3125 13.5211 11.3125 12.9688V12.8842C11.3125 12.3319 11.7602 11.8842 12.3125 11.8842ZM16.8125 11.8842C17.3648 11.8842 17.8125 12.3319 17.8125 12.8842V12.9688C17.8125 13.5211 17.3648 13.9688 16.8125 13.9688C16.2602 13.9688 15.8125 13.5211 15.8125 12.9688V12.8842C15.8125 12.3319 16.2602 11.8842 16.8125 11.8842ZM7.25 16.4688C7.80228 16.4688 8.25 16.9165 8.25 17.4688V17.5534C8.25 18.1057 7.80228 18.5534 7.25 18.5534C6.69772 18.5534 6.25 18.1057 6.25 17.5534V17.4688C6.25 16.9165 6.69772 16.4688 7.25 16.4688ZM12.3125 16.4688C12.8648 16.4688 13.3125 16.9165 13.3125 17.4688V17.5534C13.3125 18.1057 12.8648 18.5534 12.3125 18.5534C11.7602 18.5534 11.3125 18.1057 11.3125 17.5534V17.4688C11.3125 16.9165 11.7602 16.4688 12.3125 16.4688Z" fill="#00DA30"/>
</svg>
