<svg width="22" height="20" viewBox="0 0 22 20" fill="none" xmlns="http://www.w3.org/2000/svg">
<path d="M21.77 5.07084C21.4036 3.63391 20.6226 2.39486 19.5115 1.48765C18.4291 0.603936 17.1029 0.11718 15.7778 0.11718C14.7618 0.11718 13.7925 0.39077 12.897 0.93023C12.1899 1.35639 11.5539 1.93597 10.9981 2.65939C9.73443 1.01231 8.06603 0.11718 6.22072 0.11718C4.89591 0.11718 3.57042 0.603936 2.48814 1.48765C1.37733 2.39486 0.596509 3.63391 0.2301 5.07067C-0.168201 6.63316 -0.24541 9.13022 1.65008 12.153C3.40459 14.9508 6.4458 17.5432 10.6895 19.858C10.7857 19.9103 10.8917 19.9367 10.998 19.9367C11.1042 19.9367 11.2103 19.9105 11.3065 19.858C15.5513 17.543 18.5935 14.9506 20.3487 12.153C22.2451 9.13022 22.1683 6.63333 21.77 5.07084ZM10.998 18.5565C5.96777 15.757 3.47861 12.9805 2.29562 10.6714H4.09712C4.34134 10.6714 4.56441 10.5334 4.67351 10.3152L5.47766 8.70691L7.66219 13.0761C7.77129 13.2945 7.99453 13.4325 8.23857 13.4325C8.48262 13.4325 8.70586 13.2945 8.81496 13.0761L10.9995 8.70691L11.8036 10.3152C11.9129 10.5336 12.136 10.6714 12.38 10.6714H17.2674C17.6232 10.6714 17.9118 10.3829 17.9118 10.027C17.9118 9.67119 17.6232 9.38266 17.2674 9.38266H12.7783L11.576 6.97775C11.4668 6.75938 11.2437 6.62158 10.9995 6.62158C10.7554 6.62158 10.5324 6.75938 10.4233 6.97775L8.23857 11.347L6.05405 6.97775C5.94478 6.75938 5.72171 6.62158 5.47766 6.62158C5.23345 6.62158 5.01038 6.75938 4.90128 6.97775L3.69882 9.38266H1.74525C1.1066 7.51536 1.30247 6.08145 1.47905 5.38925C2.07709 3.04409 4.02679 1.40608 6.22072 1.40608C7.88005 1.40608 9.38094 2.37556 10.4468 4.1356C10.5634 4.32846 10.7724 4.44628 10.9978 4.44628H10.998C11.2232 4.44628 11.4324 4.32862 11.5492 4.13577C12.6159 2.37556 14.1176 1.40608 15.7778 1.40608C17.9725 1.40608 19.9231 3.04409 20.5211 5.38925C20.9359 7.01602 21.4582 12.7362 10.998 18.5565Z" fill="#F43131"/>
</svg>
