<svg width="26" height="26" viewBox="0 0 26 26" fill="none" xmlns="http://www.w3.org/2000/svg">
<path fill-rule="evenodd" clip-rule="evenodd" d="M13.2227 2.51858C13.0931 2.43091 12.9069 2.43091 12.7773 2.51858L2.57351 9.41902C2.48277 9.48039 2.45283 9.56022 2.45283 9.61974V22.5343C2.45283 23.0363 2.89919 23.5472 3.58113 23.5472H22.4189C23.1008 23.5472 23.5472 23.0363 23.5472 22.5343V9.61974C23.5472 9.56022 23.5172 9.48039 23.4265 9.41902L13.2227 2.51858ZM11.4032 0.486748C12.3629 -0.162251 13.6371 -0.162248 14.5968 0.486749L24.8005 7.38719C25.538 7.88592 26 8.71279 26 9.61974V22.5343C26 24.5057 24.3379 26 22.4189 26H3.58113C1.66213 26 0 24.5057 0 22.5343V9.61974C0 8.71279 0.461978 7.88592 1.19946 7.38719L11.4032 0.486748ZM5.88679 19.6226C5.88679 18.9453 6.43588 18.3962 7.11321 18.3962H18.8868C19.5641 18.3962 20.1132 18.9453 20.1132 19.6226C20.1132 20.3 19.5641 20.8491 18.8868 20.8491H7.11321C6.43588 20.8491 5.88679 20.3 5.88679 19.6226Z" fill="#F4F4F4"/>
</svg>
