<svg width="687" height="660" viewBox="0 0 687 660" fill="none" xmlns="http://www.w3.org/2000/svg">
<path opacity="0.6" fill-rule="evenodd" clip-rule="evenodd" d="M114.669 31.3542C70.792 76.6977 54.5705 114.076 54.6663 169.614C54.7398 212.927 66.4803 251.381 88.6871 281.054C97.2658 292.516 96.2853 297.81 85.57 297.919C81.7214 297.958 72.6253 300.696 65.3593 304.004C23.9159 322.878 -16.0071 388.142 6.4999 400.222C10.1505 402.182 38.0902 403.537 74.8163 403.537H136.953L138.189 437.966C139.297 468.808 140.408 474.191 148.859 489.631C154.439 499.826 169.581 517.492 185.911 532.868L213.528 558.867L215.013 583.348C217.383 622.357 234.1 645.176 267.747 655.331C289.056 661.762 398.998 661.474 420.972 654.931C452.527 645.534 473.012 614.798 473.012 576.853V559.152L504.558 528.586C543.232 491.105 549.665 477.368 549.665 432.24V403.537H613.047C670.395 403.537 676.933 402.98 681.714 397.679C684.621 394.458 687 388.248 687 383.879C687 373.839 667.891 341.652 652.481 325.735C640.137 312.981 612.175 297.849 600.964 297.849C597.342 297.849 594.378 297.32 594.378 296.67C594.378 296.023 600.568 286.236 608.134 274.921C629.504 242.968 637.505 214.262 637.451 169.742C637.4 127.828 631.28 104.574 611.641 71.6599C598.253 49.2155 550.655 0 542.338 0C531.268 0 524.114 6.25482 524.114 15.9365C524.114 21.0544 525.698 26.2267 527.637 27.4277C533.472 31.0435 546.407 61.7764 546.423 72.0602C546.452 93.1626 539.834 106.076 516.468 130.515L493.322 154.721L477.806 149.421C464.466 144.863 445.667 144.12 343.495 144.12C249.475 144.12 222.037 145.062 211.941 148.633L199.188 153.146L178.144 131.819C166.566 120.088 154.876 105.134 152.168 98.5848C143.043 76.5407 147.269 50.0194 163.123 29.8073C170.89 19.9078 171.363 11.8371 164.579 5.0314C154.209 -5.36448 146.023 -1.04727 114.669 31.3542ZM594.842 115.104C603.139 136.655 606.231 180.813 601.117 204.721C596.122 228.079 583.669 253.104 568.879 269.505L556.314 283.437L556.183 259.125C556.02 228.7 550.38 209.593 535.394 188.673L523.673 172.314L544.685 150.487C565.896 128.459 578.125 107.584 578.441 92.8776C578.607 85.1463 578.773 85.0855 583.299 91.0841C585.876 94.5013 591.073 105.31 594.842 115.104ZM115.333 95.2796C115.4 107.197 131.319 134.327 149.983 154.337C168.674 174.373 169.246 175.471 163.628 180.573C160.399 183.5 153.65 193.432 148.626 202.64C140.753 217.068 139.313 223.704 138.201 250.609C137.495 267.782 135.886 281.835 134.631 281.835C129.83 281.835 105.73 245.427 98.9905 228.005C90.4597 205.935 87.087 154.907 92.689 132.597C99.8688 104.013 115.241 78.6769 115.333 95.2796ZM467.848 182.408C486.35 189.464 514.532 223.255 514.532 238.382C514.532 241.543 508.148 245.024 496.168 248.406C486.069 251.253 470.77 255.602 462.179 258.065C420.761 269.938 394.361 299.316 388.395 340.163C387.107 348.986 389.886 376.458 396.165 417.001C401.544 451.709 405.941 480.895 405.941 481.855C405.941 482.816 377.916 483.604 343.661 483.604C305.696 483.604 281.382 482.397 281.382 480.507C281.382 478.806 285.792 449.62 291.18 415.653C303.39 338.696 301.963 324.703 278.587 292.459C265.7 274.681 248.268 264.986 208.415 253.434C190.242 248.166 174.56 243.045 173.57 242.049C169.316 237.786 180.239 214.256 192.219 201.877C214.084 179.283 211.861 179.616 342.655 179.475C409.726 179.404 463.252 180.657 467.848 182.408ZM208.335 289.589C231.264 296.436 237.811 299.94 247.274 310.445C267.207 332.572 267.769 339.359 256.054 417.011C243.419 500.764 244.652 495.816 233.218 508.55L223.758 519.086L205.968 503.746C196.182 495.31 184.356 481.923 179.686 473.996L171.194 459.584L170.172 368.82C169.194 282.309 169.421 278.136 174.963 279.709C178.16 280.615 193.177 285.061 208.335 289.589ZM511.428 464.977C509.189 472.721 500.629 484.004 486.522 497.805C474.702 509.37 464.312 518.76 463.431 518.667C462.552 518.577 457.522 513.088 452.252 506.468C443.278 495.195 441.981 489.83 431.77 421.812C419.324 338.901 419.841 332.313 440.55 310.051C450.47 299.386 457.069 295.991 482.626 288.398L512.935 279.389L513.89 366.284C514.494 421.357 513.593 457.499 511.428 464.977ZM195.786 330.516C193.678 332.63 191.954 338.106 191.954 342.686C191.954 347.266 193.678 352.743 195.786 354.856C201.625 360.711 238.293 359.814 244.426 353.668C251.091 346.981 250.772 338.478 243.601 331.973C236.591 325.613 201.737 324.55 195.786 330.516ZM441.713 330.516C439.605 332.63 437.88 338.106 437.88 342.686C437.88 355.382 443.591 358.7 465.44 358.7C486.561 358.7 495.369 353.985 495.369 342.686C495.369 331.387 486.561 326.673 465.44 326.673C454.223 326.673 443.872 328.351 441.713 330.516ZM134.132 334.471C136.071 335.676 137.658 343.778 137.658 352.483V368.308H91.2358C46.6849 368.308 44.941 368.064 48.0455 362.248C52.3444 354.193 69.8498 339.592 81.7661 334.122C91.37 329.712 126.834 329.949 134.132 334.471ZM609.46 338.039C618.444 342.529 629.581 351.177 634.203 357.255L642.612 368.308H595.963H549.313L550.287 353.172C551.086 340.749 552.692 337.312 559.246 334.004C572.044 327.538 591.593 329.11 609.46 338.039ZM418.822 523.692C432.703 530.888 437.886 543.715 437.832 570.717C437.778 597.856 434.009 607.077 418.742 617.389C407.89 624.723 406.427 624.845 339.49 623.891L271.295 622.92L260.369 610.958C249.82 599.406 249.443 598.106 249.443 573.167C249.443 544.01 254.195 531.276 267.849 523.846C280.762 516.822 405.325 516.694 418.822 523.692Z" fill="#EFEFEF"/>
</svg>
