<svg width="24" height="24" viewBox="0 0 24 24" fill="none" xmlns="http://www.w3.org/2000/svg">
<path fill-rule="evenodd" clip-rule="evenodd" d="M13.6455 3.40226C13.4223 3.38509 13.2028 3.46631 13.0445 3.62459L3.62461 13.0445C3.32516 13.3439 3.32516 13.8294 3.62461 14.1289L9.87115 20.3754C10.1706 20.6749 10.6561 20.6749 10.9556 20.3754L20.3754 10.9555C20.5337 10.7973 20.6149 10.5777 20.5978 10.3545L20.1516 4.55416C20.1226 4.17707 19.8229 3.87745 19.4459 3.84844L13.6455 3.40226ZM11.6303 2.21038C12.2014 1.63925 12.9936 1.34621 13.7989 1.40815L19.5992 1.85434C20.9599 1.959 22.041 3.04012 22.1457 4.40077L22.5919 10.2011C22.6538 11.0064 22.3608 11.7986 21.7896 12.3698L12.3698 21.7896C11.2893 22.8701 9.53744 22.8701 8.45694 21.7896L2.2104 15.5431C1.1299 14.4626 1.1299 12.7107 2.2104 11.6302L11.6303 2.21038ZM15.3476 7.64735C15.3504 7.09507 15.8004 6.64965 16.3527 6.65246L16.3591 6.65249C16.9113 6.6553 17.3568 7.10529 17.354 7.65757C17.3511 8.20985 16.9012 8.65528 16.3489 8.65246L16.3425 8.65243C15.7902 8.64962 15.3448 8.19963 15.3476 7.64735Z" fill="#00DA30"/>
</svg>
