<svg width="226" height="64" viewBox="0 0 226 64" fill="none" xmlns="http://www.w3.org/2000/svg">
<path d="M77 51.2241H80.1973V13H77V51.2241Z" fill="#FAFAFA"/>
<path d="M85.1108 37.3621C85.1108 41.4483 86.4736 44.9138 89.2516 47.7069C92.0296 50.5 95.489 51.8965 99.6822 51.8965C103.875 51.8965 107.335 50.5 110.113 47.7069C112.891 44.9138 114.254 41.4483 114.254 37.3621C114.254 33.2759 112.891 29.8621 110.113 27.069C107.335 24.2759 103.875 22.8793 99.6822 22.8793C95.489 22.8793 92.0296 24.2759 89.2516 27.069C86.4736 29.8621 85.1108 33.2759 85.1108 37.3621ZM99.6822 49.0517C96.4325 49.0517 93.7069 47.9138 91.5055 45.6897C89.3564 43.4138 88.2557 40.6207 88.2557 37.3621C88.2557 34.1034 89.3564 31.3621 91.5055 29.1379C93.7069 26.8621 96.4325 25.7241 99.6822 25.7241C102.984 25.7241 105.71 26.8621 107.859 29.0862C110.008 31.3103 111.109 34.1034 111.109 37.3621C111.109 40.6207 110.008 43.4138 107.859 45.6897C105.71 47.9138 102.984 49.0517 99.6822 49.0517Z" fill="#FAFAFA"/>
<path d="M127.435 51.2241V32.8621L137.132 46.2586H140.801L150.498 32.8621V51.2241H160.195V13H152.909L139.019 32.6552L125.076 13H117.843V51.2241H127.435Z" fill="#FAFAFA"/>
<path d="M178.191 52C182.855 52 186.682 50.5517 189.565 47.6552C192.5 44.7586 193.967 41.1897 193.967 36.9483C193.967 32.7069 192.5 29.1379 189.565 26.2414C186.682 23.2931 182.855 21.8448 178.191 21.8448C173.526 21.8448 169.752 23.2931 166.816 26.2414C163.934 29.1379 162.466 32.7069 162.466 36.9483C162.466 41.1897 163.934 44.7586 166.816 47.6552C169.752 50.5517 173.526 52 178.191 52ZM178.191 43.4655C176.356 43.4655 174.836 42.8448 173.578 41.6034C172.32 40.3103 171.691 38.7586 171.691 36.8965C171.691 35.0862 172.32 33.5862 173.578 32.3448C174.836 31.0517 176.356 30.431 178.191 30.431C180.025 30.431 181.545 31.0517 182.803 32.2931C184.113 33.5345 184.742 35.0862 184.742 36.8965C184.742 38.7586 184.113 40.3103 182.855 41.6034C181.597 42.8448 180.025 43.4655 178.191 43.4655Z" fill="#FAFAFA"/>
<path d="M210.223 52C214.888 52 218.714 50.5517 221.597 47.6552C224.532 44.7586 226 41.1897 226 36.9483C226 32.7069 224.532 29.1379 221.597 26.2414C218.714 23.2931 214.888 21.8448 210.223 21.8448C205.558 21.8448 201.784 23.2931 198.849 26.2414C195.966 29.1379 194.499 32.7069 194.499 36.9483C194.499 41.1897 195.966 44.7586 198.849 47.6552C201.784 50.5517 205.558 52 210.223 52ZM210.223 43.4655C208.389 43.4655 206.869 42.8448 205.611 41.6034C204.353 40.3103 203.724 38.7586 203.724 36.8965C203.724 35.0862 204.353 33.5862 205.611 32.3448C206.869 31.0517 208.389 30.431 210.223 30.431C212.058 30.431 213.578 31.0517 214.836 32.2931C216.146 33.5345 216.775 35.0862 216.775 36.8965C216.775 38.7586 216.146 40.3103 214.888 41.6034C213.63 42.8448 212.058 43.4655 210.223 43.4655Z" fill="#FAFAFA"/>
<path fill-rule="evenodd" clip-rule="evenodd" d="M11.1832 3.04041C6.90403 7.43735 5.32201 11.0619 5.33136 16.4474C5.33852 20.6474 6.48353 24.3764 8.64926 27.2537C9.4859 28.3652 9.39027 28.8786 8.34525 28.8891C7.96992 28.8929 7.08282 29.1584 6.3742 29.4792C2.33241 31.3094 -1.5611 37.638 0.633906 38.8094C0.989929 38.9995 3.71477 39.1309 7.29649 39.1309H13.3564L13.4769 42.4694C13.585 45.4601 13.6934 45.9822 14.5176 47.4794C15.0617 48.4679 16.5385 50.181 18.1311 51.672L20.8244 54.1932L20.9693 56.5671C21.2004 60.3497 22.8307 62.5625 26.1122 63.5473C28.1904 64.1709 38.9125 64.143 41.0555 63.5085C44.1329 62.5973 46.1307 59.6168 46.1307 55.9373V54.2208L49.2072 51.2568C52.979 47.6223 53.6063 46.2903 53.6063 41.9141V39.1309H59.7876C65.3806 39.1309 66.0182 39.0768 66.4845 38.5629C66.7679 38.2504 67 37.6482 67 37.2246C67 36.251 65.1364 33.1299 63.6335 31.5864C62.4296 30.3497 59.7026 28.8823 58.6093 28.8823C58.2561 28.8823 57.967 28.8311 57.967 28.768C57.967 28.7053 58.5707 27.7562 59.3086 26.659C61.3927 23.5605 62.173 20.7769 62.1677 16.4598C62.1627 12.3955 61.5659 10.1405 59.6506 6.94884C58.3449 4.77241 53.7029 0 52.8918 0C51.8122 0 51.1144 0.606529 51.1144 1.54536C51.1144 2.04164 51.2689 2.5432 51.458 2.65966C52.0271 3.01028 53.2886 5.99044 53.2901 6.98766C53.2929 9.03395 52.6476 10.2861 50.3688 12.656L48.1115 15.0033L46.5983 14.4893C45.2972 14.0474 43.4638 13.9753 33.4996 13.9753C24.3302 13.9753 21.6542 14.0666 20.6696 14.4129L19.4259 14.8505L17.3735 12.7824C16.2444 11.6449 15.1044 10.1948 14.8403 9.55974C13.9504 7.42213 14.3624 4.85037 15.9086 2.89041C16.6662 1.93046 16.7123 1.14784 16.0507 0.487894C15.0393 -0.520192 14.241 -0.101554 11.1832 3.04041ZM58.0122 11.1616C58.8214 13.2514 59.1229 17.5334 58.6243 19.8518C58.1371 22.1167 56.9226 24.5434 55.4802 26.1338L54.2548 27.4848L54.242 25.1273C54.2261 22.177 53.6761 20.3241 52.2146 18.2955L51.0715 16.7092L53.1207 14.5927C55.1892 12.4567 56.3819 10.4324 56.4127 9.00631C56.4289 8.25661 56.4451 8.25071 56.8865 8.8324C57.1379 9.16377 57.6447 10.2119 58.0122 11.1616ZM11.2479 9.23923C11.2545 10.3948 12.8069 13.0256 14.6272 14.966C16.45 16.9089 16.5058 17.0154 15.9579 17.5101C15.6429 17.794 14.9848 18.757 14.4948 19.6499C13.727 21.049 13.5865 21.6925 13.4782 24.3015C13.4093 25.9668 13.2523 27.3295 13.1299 27.3295C12.6618 27.3295 10.3113 23.799 9.65409 22.1096C8.82213 19.9695 8.4932 15.0213 9.03954 12.8579C9.73975 10.0861 11.2389 7.62928 11.2479 9.23923ZM45.6271 17.6881C47.4315 18.3723 50.18 21.649 50.18 23.1158C50.18 23.4223 49.5574 23.7599 48.389 24.0878C47.4041 24.3639 45.9121 24.7857 45.0742 25.0245C41.0349 26.1758 38.4602 29.0245 37.8784 32.9855C37.7528 33.8411 38.0238 36.5051 38.6362 40.4365C39.1607 43.802 39.5896 46.6322 39.5896 46.7254C39.5896 46.8185 36.8564 46.8949 33.5158 46.8949C29.8132 46.8949 27.4419 46.7779 27.4419 46.5946C27.4419 46.4297 27.872 43.5996 28.3975 40.3057C29.5883 32.8432 29.449 31.4864 27.1693 28.3596C25.9125 26.6357 24.2124 25.6956 20.3258 24.5754C18.5534 24.0646 17.0241 23.568 16.9275 23.4714C16.5126 23.058 17.5779 20.7763 18.7462 19.576C20.8786 17.385 20.6618 17.4173 33.4176 17.4036C39.9587 17.3968 45.1789 17.5182 45.6271 17.6881ZM20.318 28.0814C22.5541 28.7454 23.1926 29.0851 24.1156 30.1038C26.0595 32.2494 26.1143 32.9075 24.9718 40.4374C23.7396 48.5589 23.8598 48.0791 22.7447 49.3139L21.8221 50.3357L20.0872 48.8481C19.1328 48.03 17.9794 46.7319 17.524 45.9632L16.6958 44.5657L16.5961 35.7644C16.5008 27.3755 16.5229 26.9708 17.0633 27.1233C17.3751 27.2112 18.8397 27.6422 20.318 28.0814ZM49.8772 45.0887C49.6589 45.8396 48.8241 46.9338 47.4483 48.272C46.2955 49.3934 45.2823 50.304 45.1963 50.295C45.1106 50.2863 44.6201 49.754 44.1061 49.112C43.2309 48.0189 43.1044 47.4987 42.1086 40.9029C40.8947 32.8631 40.9452 32.2243 42.9649 30.0656C43.9323 29.0314 44.5758 28.7022 47.0683 27.9658L50.0243 27.0922L50.1174 35.5184C50.1763 40.8588 50.0884 44.3635 49.8772 45.0887ZM19.0942 32.05C18.8886 32.255 18.7204 32.7861 18.7204 33.2302C18.7204 33.6743 18.8886 34.2054 19.0942 34.4103C19.6635 34.978 23.2397 34.8911 23.8377 34.2951C24.4878 33.6467 24.4566 32.8221 23.7573 32.1914C23.0736 31.5746 19.6745 31.4715 19.0942 32.05ZM43.0782 32.05C42.8727 32.255 42.7045 32.7861 42.7045 33.2302C42.7045 34.4613 43.2614 34.783 45.3922 34.783C47.452 34.783 48.3111 34.3259 48.3111 33.2302C48.3111 32.1345 47.452 31.6774 45.3922 31.6774C44.2983 31.6774 43.2888 31.8401 43.0782 32.05ZM13.0813 32.4336C13.2704 32.5504 13.4252 33.3361 13.4252 34.1802V35.7147H8.89782C4.55296 35.7147 4.3829 35.6911 4.68566 35.1271C5.10491 34.346 6.81214 32.9302 7.97428 32.3997C8.9109 31.9721 12.3696 31.9951 13.0813 32.4336ZM59.4379 32.7796C60.3141 33.215 61.4002 34.0535 61.8509 34.6429L62.671 35.7147H58.1215H53.572L53.667 34.247C53.7449 33.0423 53.9016 32.7091 54.5407 32.3883C55.7888 31.7612 57.6954 31.9137 59.4379 32.7796ZM40.8458 50.7822C42.1995 51.4801 42.7051 52.7239 42.6998 55.3422C42.6945 57.9739 42.3269 58.868 40.8381 59.8681C39.7796 60.5793 39.637 60.591 33.109 60.4985L26.4582 60.4044L25.3926 59.2445C24.3638 58.1243 24.327 57.9982 24.327 55.5798C24.327 52.7525 24.7905 51.5177 26.1221 50.7972C27.3814 50.1161 39.5295 50.1037 40.8458 50.7822Z" fill="#0C1E10"/>
</svg>
