<svg width="26" height="26" viewBox="0 0 26 26" fill="none" xmlns="http://www.w3.org/2000/svg">
<path d="M25.1867 11.3743C24.7382 11.3743 24.3743 11.7383 24.3743 12.1867V21.3869L17.8747 23.9868V15.4365C17.8747 14.9881 17.5107 14.6241 17.0622 14.6241C16.6138 14.6241 16.2498 14.9881 16.2498 15.4365V23.9851L9.75018 21.3853V8.51284L13.5151 10.0191C13.9262 10.1849 14.4039 9.98338 14.5713 9.56578C14.7386 9.1498 14.5355 8.67696 14.1179 8.50959L9.25459 6.56296H9.25296L9.23997 6.55809C9.0466 6.48009 8.83049 6.48009 8.63713 6.55809L8.6225 6.56296H8.62088L0.511012 9.80789C0.203906 9.93138 0.000793457 10.2287 0.000793457 10.5618V25.1859C0.000793457 25.4557 0.13566 25.7075 0.358271 25.8586C0.494763 25.9513 0.652378 25.9984 0.813243 25.9984C0.915611 25.9984 1.01798 25.9789 1.11547 25.9399L8.93773 22.8119L16.7454 25.935H16.747L16.7616 25.9415C16.955 26.0195 17.1711 26.0195 17.3645 25.9415L17.3791 25.935H17.3807L25.4906 22.6917C25.7961 22.5666 25.9992 22.2692 25.9992 21.9361V12.1867C25.9992 11.7383 25.6352 11.3743 25.1867 11.3743ZM8.12529 21.3853L1.62569 23.9851V11.1111L8.12529 8.51122V21.3853Z" fill="#F4F4F4"/>
<path d="M20.312 3.2498C18.9682 3.2498 17.8747 4.34335 17.8747 5.68714C17.8747 7.03094 18.9682 8.12449 20.312 8.12449C21.6558 8.12449 22.7494 7.03094 22.7494 5.68714C22.7494 4.34335 21.6558 3.2498 20.312 3.2498ZM20.312 6.49959C19.8636 6.49959 19.4996 6.13562 19.4996 5.68714C19.4996 5.23867 19.8636 4.8747 20.312 4.8747C20.7605 4.8747 21.1245 5.23867 21.1245 5.68714C21.1245 6.13562 20.7605 6.49959 20.312 6.49959Z" fill="#F4F4F4"/>
<path d="M20.312 0C17.176 0 14.6249 2.55109 14.6249 5.68714C14.6249 8.60546 19.1876 13.7743 19.7076 14.3544C19.8619 14.525 20.0813 14.6241 20.312 14.6241C20.5428 14.6241 20.7621 14.525 20.9165 14.3544C21.4365 13.7743 25.9992 8.60546 25.9992 5.68714C25.9992 2.55109 23.4481 0 20.312 0ZM20.312 12.5718C18.5376 10.4676 16.2498 7.2373 16.2498 5.68714C16.2498 3.44803 18.0729 1.6249 20.312 1.6249C22.5511 1.6249 24.3743 3.44803 24.3743 5.68714C24.3743 7.23567 22.0864 10.4676 20.312 12.5718Z" fill="#F4F4F4"/>
</svg>
