<svg width="36" height="32" viewBox="0 0 36 32" fill="none" xmlns="http://www.w3.org/2000/svg">
<path d="M17.9062 16H18M14.1241 8.99995C11.6646 10.3647 10 12.9879 10 16C10 19.0121 11.6646 21.6353 14.1241 23.0001M21.8759 8.99995C24.3354 10.3647 26 12.9879 26 16C26 19.0121 24.3354 21.6353 21.8759 23.0001M10 29.8595C5.21759 27.093 2 21.9223 2 16C2 10.0777 5.21759 4.90699 10 2.14052M26 29.8595C30.7824 27.093 34 21.9223 34 16C34 10.0777 30.7824 4.90699 26 2.14052" stroke="#00DA30" stroke-width="3" stroke-linecap="round"/>
</svg>
