<svg width="24" height="24" viewBox="0 0 24 24" fill="none" xmlns="http://www.w3.org/2000/svg">
<path fill-rule="evenodd" clip-rule="evenodd" d="M12 3.4C10.5641 3.4 9.40002 4.56406 9.40002 6C9.40002 7.43594 10.5641 8.6 12 8.6C13.436 8.6 14.6 7.43594 14.6 6C14.6 4.56406 13.436 3.4 12 3.4ZM7.40002 6C7.40002 3.45949 9.45951 1.4 12 1.4C14.5405 1.4 16.6 3.45949 16.6 6C16.6 8.54051 14.5405 10.6 12 10.6C9.45951 10.6 7.40002 8.54051 7.40002 6ZM4.16983 14.8884C5.99086 13.4754 8.63038 12.6762 12 12.6762C15.3697 12.6762 18.0092 13.4754 19.8302 14.8884C21.6734 16.3187 22.6 18.3218 22.6 20.5124C22.6 21.5636 21.8106 22.6 20.6212 22.6H3.37885C2.18948 22.6 1.40002 21.5636 1.40002 20.5124C1.40002 18.3218 2.32664 16.3187 4.16983 14.8884ZM5.39593 16.4685C4.05055 17.5125 3.40002 18.9275 3.40002 20.5124C3.40002 20.5548 3.4114 20.5837 3.42108 20.6H20.579C20.5886 20.5837 20.6 20.5548 20.6 20.5124C20.6 18.9275 19.9495 17.5125 18.6041 16.4685C17.2366 15.4074 15.0761 14.6762 12 14.6762C8.92395 14.6762 6.76347 15.4074 5.39593 16.4685Z" fill="#00DA30"/>
</svg>
