<svg width="24" height="26" viewBox="0 0 24 26" fill="none" xmlns="http://www.w3.org/2000/svg">
<path d="M23.9862 19.4245C23.8405 17.94 22.4864 16.7742 20.9093 16.7742C20.7208 16.7742 20.5708 16.6274 20.5708 16.4428V11.5028C20.5708 7.83348 18.171 4.63383 14.8669 3.43867C14.9055 3.24994 14.9269 3.05707 14.9269 2.86414C14.927 1.28325 13.6157 0 12.0001 0C10.3844 0 9.07317 1.28325 9.07317 2.86421C9.07317 3.05294 9.09456 3.2416 9.12884 3.42194C7.99326 3.81614 6.94334 4.44096 6.04772 5.28806C4.3593 6.88162 3.42939 9.0245 3.42939 11.3226V16.4429C3.42939 16.6232 3.27939 16.7742 3.09082 16.7742C1.50954 16.7742 0.159622 17.94 0.0139172 19.4246C-0.0675229 20.2507 0.211077 21.0726 0.781015 21.6849C1.34666 22.293 2.15662 22.6452 3.0008 22.6452H8.16895C8.38322 24.5282 10.0202 26.0001 12.0001 26.0001C13.9799 26.0001 15.6169 24.5282 15.8312 22.6452H20.9994C21.8436 22.6452 22.6535 22.293 23.2191 21.6849C23.7848 21.0725 24.0677 20.2506 23.9862 19.4245ZM12.0001 1.67739C12.6686 1.67739 13.2128 2.20998 13.2128 2.86414C13.2128 2.91862 13.2042 2.96897 13.1956 3.02346C12.9042 2.98151 12.6085 2.95217 12.3128 2.94376C11.8028 2.92695 11.3015 2.96057 10.8044 3.02766C10.7958 2.97318 10.7872 2.92282 10.7872 2.86834C10.7873 2.20998 11.3316 1.67739 12.0001 1.67739ZM12.0001 24.3225C10.9673 24.3225 10.1017 23.6012 9.90023 22.6452H14.0998C13.8985 23.6013 13.0329 24.3225 12.0001 24.3225ZM21.9507 20.5568C21.7021 20.821 21.3678 20.9677 20.9993 20.9677H3.00087C2.63231 20.9677 2.29811 20.8209 2.04949 20.5568C1.80095 20.2926 1.68523 19.9445 1.7238 19.5839C1.78377 18.9507 2.38806 18.4516 3.09512 18.4516C4.22648 18.4516 5.1478 17.55 5.1478 16.4429V11.3226C5.1478 9.4858 5.89342 7.77066 7.24334 6.49581C8.52892 5.27552 10.2088 4.61289 12.0001 4.61289C12.0858 4.61289 12.1672 4.61289 12.2529 4.61709C15.8912 4.74286 18.8566 7.83355 18.8566 11.5029V16.4429C18.8566 17.55 19.778 18.4516 20.9093 18.4516C21.6164 18.4516 22.2207 18.9507 22.2806 19.5839C22.3149 19.9445 22.1992 20.2884 21.9507 20.5568Z" fill="#F4F4F4"/>
<path d="M0.901028 10.0645C1.29528 10.0645 1.65095 9.79618 1.73668 9.40617C2.15233 7.56519 3.09082 5.8878 4.46214 4.55427C4.79641 4.22715 4.79641 3.69457 4.46214 3.36752C4.12786 3.0404 3.58361 3.0404 3.24941 3.36752C1.64673 4.9274 0.545354 6.89422 0.0611497 9.04964C-0.0416881 9.50253 0.249722 9.95123 0.712528 10.0477C0.781086 10.0603 0.841057 10.0645 0.901028 10.0645Z" fill="#F4F4F4"/>
<path d="M23.0991 10.0645C23.1591 10.0645 23.2234 10.0561 23.2834 10.0436C23.7462 9.94296 24.0376 9.4984 23.9348 9.04551C23.4505 6.89002 22.3492 4.92747 20.7464 3.36325C20.4122 3.03613 19.8679 3.03613 19.5337 3.36325C19.1995 3.69036 19.1994 4.22295 19.5337 4.55C20.9007 5.88353 21.8435 7.56099 22.2592 9.4019C22.3492 9.79611 22.7049 10.0645 23.0991 10.0645Z" fill="#F4F4F4"/>
</svg>
